<?xml version="1.0" standalone="no"?>
<!DOCTYPE svg PUBLIC "-//W3C//DTD SVG 20010904//EN"
 "http://www.w3.org/TR/2001/REC-SVG-20010904/DTD/svg10.dtd">
<svg version="1.0" xmlns="http://www.w3.org/2000/svg"
 width="1000.000000pt" height="1000.000000pt" viewBox="0 0 1000.000000 1000.000000"
 preserveAspectRatio="xMidYMid meet">
<metadata>
Created by potrace 1.11, written by Peter Selinger 2001-2013
</metadata>
<g transform="translate(0.000000,1000.000000) scale(0.100000,-0.100000)"
fill="#000000" stroke="none">
<path d="M466 7731 c-3 -6 0 -1020 3 -1031 0 -3 183 -5 405 -5 352 0 405 -2
408 -15 2 -8 4 -654 3 -1435 l0 -1420 -411 -3 -410 -2 1 -778 0 -777 4535 -1
4536 -1 -1 781 0 781 -1179 1 c-781 1 -1181 5 -1185 12 -3 6 -6 201 -6 434 l1
423 1185 5 1185 5 -1 1515 0 1515 -525 1 -525 1 0 -491 -1 -491 -452 0 c-294
0 -453 3 -455 10 -2 5 -3 227 -3 491 l1 481 -3553 0 c-1954 0 -3554 -2 -3556
-6z m4250 -502 l1 -246 -1274 0 c-700 0 -1276 -2 -1279 -6 -7 -7 -7 -2242 0
-2276 9 -41 56 -99 101 -126 89 -52 146 -57 695 -60 278 -2 516 -5 530 -8 14
-2 45 -8 68 -11 134 -22 288 -93 370 -171 28 -28 53 -51 53 -51 1 1 3 118 4
262 2 144 5 279 9 300 3 21 8 59 12 84 3 25 11 53 16 64 7 12 7 21 -1 25 -5 4
-349 6 -764 4 l-753 -2 -2 740 -1 739 1108 0 1109 0 0 -244 c0 -219 -2 -245
-17 -248 -9 -2 -411 -3 -893 -2 l-878 0 0 -246 0 -246 886 0 c487 1 889 -1
894 -4 4 -3 8 -116 8 -251 l0 -245 -49 -18 c-55 -19 -122 -82 -146 -136 -39
-92 -45 -163 -46 -555 0 -209 3 -406 7 -438 21 -175 113 -277 281 -313 44 -10
169 -13 460 -13 350 0 408 2 465 18 36 10 79 25 96 34 77 40 143 139 162 243
10 58 9 863 -2 909 -26 111 -107 208 -205 244 -58 22 -72 25 -196 36 -296 25
-490 128 -604 318 -55 92 -93 208 -107 327 -11 87 -11 1077 0 1164 9 82 48
221 78 279 54 107 136 198 232 256 63 38 198 87 266 96 25 3 54 9 65 12 36 12
1834 10 1838 -2 1 -5 2 -227 1 -492 l-1 -483 714 0 713 0 0 38 c1 20 1 241 1
490 0 248 3 453 7 453 4 1 114 2 245 3 l237 1 0 -65 c2 -1081 0 -2393 -2
-2396 -2 -2 -490 -5 -1084 -6 l-1079 -3 -57 -24 c-101 -42 -163 -117 -194
-236 -16 -61 -19 -849 -3 -932 27 -145 108 -230 254 -269 40 -11 254 -14 1108
-14 838 0 1057 -3 1058 -12 1 -7 2 -118 3 -246 l1 -232 -55 -1 c-367 -3 -2140
1 -2185 5 -269 26 -462 135 -575 324 l-42 72 -43 -72 c-44 -75 -111 -148 -179
-194 -97 -66 -263 -118 -407 -128 -97 -7 -960 -8 -1055 -1 -160 11 -309 59
-422 135 -65 45 -165 154 -178 195 -16 50 -26 47 -65 -17 -91 -153 -224 -242
-426 -289 -68 -15 -80 -17 -158 -24 -52 -5 -1873 -8 -2702 -5 l-63 0 0 245 0
245 1311 0 c912 0 1332 3 1382 11 174 27 260 105 260 234 0 105 -51 174 -158
214 -81 30 -146 34 -645 36 -497 2 -536 4 -663 36 -236 59 -388 191 -457 397
-44 134 -46 173 -44 1367 1 622 0 1137 -2 1145 -3 13 -66 15 -491 15 l-488 0
-2 235 c-2 129 -1 240 1 245 2 7 681 10 2017 10 l2014 0 1 -246z m809 -2944
l0 -350 -310 -2 -311 -1 2 351 c1 194 2 352 3 353 0 0 139 0 309 0 l307 -1 0
-350z m-4749 -1590 l-1 -145 25 -1 c14 0 79 -1 145 -1 66 0 123 -4 126 -9 3
-5 4 -22 1 -37 l-4 -28 -181 1 -182 0 0 180 0 180 25 6 c46 10 47 6 46 -146z
m976 136 c51 -19 62 -52 62 -177 l0 -114 -32 -32 -31 -32 -114 0 c-174 -1
-191 17 -185 201 3 109 4 112 32 137 17 14 45 26 65 28 66 6 176 0 203 -11z
m508 10 c3 -1 5 -60 5 -132 0 -161 0 -162 112 -162 106 1 110 6 111 162 0 66
3 124 6 129 3 5 15 8 28 6 13 -1 26 -3 31 -3 4 -1 6 -68 5 -149 -4 -174 -11
-193 -80 -210 -34 -8 -143 -9 -214 -3 -15 1 -46 31 -61 58 -18 31 -18 300 -1
305 10 4 31 3 58 -1z m1040 -33 l0 -38 -127 0 c-71 0 -134 -4 -142 -9 -28 -18
-31 -175 -3 -203 9 -9 105 -13 185 -9 14 1 17 11 17 61 l0 60 34 0 34 0 4 -80
c5 -124 16 -116 -147 -115 -199 0 -218 15 -220 170 -1 102 7 141 34 168 26 26
63 32 207 32 l124 0 0 -37z m450 -39 l5 -74 108 0 107 -1 1 31 c1 16 1 51 0
76 0 41 2 45 22 43 12 -1 29 -3 38 -3 13 -1 15 -24 14 -178 -1 -98 -3 -181 -3
-185 -1 -3 -17 -6 -34 -5 -36 2 -34 -4 -37 122 l-1 30 -97 -2 c-54 -1 -104 -2
-110 -2 -9 -1 -13 -23 -13 -75 l0 -73 -29 1 c-16 1 -33 4 -36 8 -12 12 -7 350
5 358 6 4 21 6 33 5 20 -1 22 -8 27 -76z m988 57 c16 -8 35 -29 42 -46 14 -33
8 -99 -11 -110 -8 -5 -6 -15 6 -34 21 -32 16 -98 -11 -127 -26 -28 -66 -35
-209 -35 l-130 1 -1 180 -1 180 26 5 c56 11 259 1 289 -14z m734 5 c48 -18 60
-49 60 -163 0 -170 -18 -191 -173 -193 -162 -3 -188 20 -193 162 -4 141 15
186 86 200 53 11 186 7 220 -6z m758 -7 c34 -21 48 -54 44 -108 -3 -53 -38
-87 -92 -89 -23 -1 -42 -5 -42 -8 0 -3 36 -36 80 -74 44 -38 80 -69 80 -70 0
-1 -25 -2 -55 -1 -57 2 -57 1 -185 115 -19 17 -45 31 -57 31 -21 0 -22 -4 -22
-57 2 -90 3 -89 -36 -89 l-35 0 0 182 c0 113 4 184 10 186 5 2 71 2 145 1 108
-1 141 -5 165 -19z m739 0 c42 -25 53 -60 53 -168 -1 -102 -15 -146 -54 -167
-12 -7 -66 -13 -120 -14 -75 -2 -106 2 -137 16 -50 22 -58 49 -56 181 1 116
17 147 83 163 64 16 196 10 231 -11z m501 -117 c3 -84 9 -141 17 -148 16 -16
168 -15 188 1 12 10 15 39 15 146 0 112 2 134 15 135 66 5 60 17 61 -131 0
-149 -5 -176 -42 -211 -24 -22 -33 -24 -137 -24 -101 0 -116 3 -145 23 -17 13
-35 35 -39 50 -9 36 -10 274 -1 287 4 6 20 10 35 10 l28 -2 5 -136z m1040 101
l0 -38 -128 0 c-165 0 -166 -1 -167 -109 -2 -105 7 -114 107 -113 128 1 116
-6 115 60 l-2 57 38 3 37 3 -2 -98 -3 -98 -130 0 c-215 -1 -235 14 -235 178 0
113 15 159 58 176 40 15 54 16 189 16 l123 0 0 -37z m441 27 c4 -5 6 -38 5
-72 0 -35 4 -64 9 -66 6 -2 55 -3 110 -3 l100 1 5 75 5 74 30 0 30 0 3 -186 2
-187 -35 2 -35 2 0 73 c0 62 -3 72 -17 73 -102 5 -196 2 -201 -5 -3 -6 -6 -39
-6 -75 l-1 -66 -32 -1 c-18 0 -34 5 -36 10 -3 10 -1 360 2 361 13 5 58 -3 62
-10z"/>
<path d="M5642 6978 c-169 -19 -264 -94 -308 -243 -16 -53 -18 -108 -18 -470
0 -225 3 -435 7 -465 13 -97 66 -186 142 -238 44 -30 135 -53 223 -58 171 -8
262 -29 388 -90 127 -60 236 -168 285 -281 14 -34 29 -43 29 -19 0 20 92 156
127 186 132 118 255 169 469 196 32 4 439 7 906 7 l848 0 0 81 c1 45 1 155 1
246 l0 165 -715 1 -716 0 0 -155 0 -156 -245 0 -245 0 1 630 c0 346 0 639 -1
650 0 20 -7 20 -558 20 -306 0 -585 -3 -620 -7z m722 -743 l0 -350 -309 0
-310 0 -1 353 -1 352 311 -2 310 -3 0 -350z"/>
<path d="M1536 2754 c-12 -11 -16 -36 -16 -94 0 -82 12 -108 48 -111 57 -5
149 3 159 14 6 7 12 37 13 67 4 135 0 140 -110 140 -58 0 -83 -4 -94 -16z"/>
<path d="M4499 2768 c-6 -19 -2 -68 6 -71 5 -3 52 -3 104 -2 99 2 116 10 101
49 -7 19 -16 21 -109 24 -55 2 -101 2 -102 0z"/>
<path d="M4499 2620 c-8 -50 -6 -70 9 -71 82 -5 185 1 196 11 13 10 14 45 3
56 -6 6 -207 10 -208 4z"/>
<path d="M5256 2754 c-12 -11 -16 -36 -16 -94 0 -85 12 -109 53 -111 146 -7
164 1 167 81 6 130 -2 140 -110 140 -58 0 -83 -4 -94 -16z"/>
<path d="M5985 2758 c-2 -7 -3 -24 -2 -38 2 -24 4 -25 82 -25 102 -1 123 3
135 26 7 13 6 22 -6 33 -20 21 -202 23 -209 4z"/>
<path d="M6740 2755 c-8 -10 -13 -46 -14 -96 0 -103 7 -111 105 -113 103 -2
116 11 117 106 1 109 -8 118 -112 118 -63 0 -87 -4 -96 -15z"/>
</g>
</svg>
